# xmcd
#
# Track frame offsets:
#	150
#	14374
#	29283
#	47272
#	63375
#	73372
#	89928
#	102149
#	119504
#	133132
#
# Disc length: 1934 seconds
#
# Revision: 0
# Processed by: cddbd v1.5.2PL0 Copyright (c) Steve Scherf et al.
# Submitted via: FairStars CD Ripper 1.90
#
DISCID=90078c0a
DTITLE=Big Boy Bloater and The Limits - The World Expained
DYEAR=2012
DGENRE=Blues
TTITLE0=Leonard Cohen
TTITLE1=Lifetime Money Back Guarantee
TTITLE2=	I Can't Forget About You
TTITLE3=She Gets naked For A Living
TTITLE4=Double Whammy!!
TTITLE5=Stop Dragging Me Back
TTITLE6=Evil Twist
TTITLE7=Black Sambuca
TTITLE8=Insanely Happy
TTITLE9=Hey Funky!
EXTD=
EXTT0=
EXTT1=
EXTT2=
EXTT3=
EXTT4=
EXTT5=
EXTT6=
EXTT7=
EXTT8=
EXTT9=
PLAYORDER=
